<svg width="185" height="13" fill="none" xmlns="http://www.w3.org/2000/svg">
  <path fill-rule="evenodd" clip-rule="evenodd"
    d="M175.746 11.295c3.716 0 5.601-2.133 7.265-4.013a1.188 1.188 0 0 0-.088-1.658 1.141 1.141 0 0 0-1.631.089c-1.535 1.734-2.861 3.233-5.546 3.233-2.69 0-4.012-1.5-5.546-3.233-1.664-1.88-3.545-4.013-7.26-4.013-3.716 0-5.602 2.133-7.266 4.013-1.534 1.734-2.856 3.233-5.545 3.233-2.69 0-4.012-1.5-5.546-3.233-1.664-1.88-3.545-4.013-7.265-4.013-3.716 0-5.602 2.133-7.261 4.013-1.534 1.734-2.861 3.233-5.546 3.233s-4.011-1.5-5.546-3.233c-1.663-1.88-3.544-4.013-7.26-4.013-3.716 0-5.601 2.133-7.261 4.013-1.534 1.734-2.856 3.233-5.546 3.233-2.69 0-4.011-1.5-5.545-3.233l.17.193a1.06 1.06 0 0 0-.138-.193C91.721 3.833 89.84 1.7 86.12 1.7c-3.716 0-5.601 2.133-7.265 4.013-1.535 1.734-2.86 3.233-5.546 3.233-2.69 0-4.012-1.5-5.546-3.233C66.1 3.833 64.218 1.7 60.503 1.7c-3.716 0-5.602 2.133-7.26 4.013-1.535 1.734-2.857 3.233-5.547 3.233-2.69 0-4.011-1.5-5.546-3.233-1.663-1.88-3.544-4.013-7.26-4.013-3.716 0-5.601 2.133-7.26 4.013-1.535 1.734-2.857 3.233-5.546 3.233-2.69 0-4.012-1.5-5.546-3.233-1.664-1.88-3.545-4.013-7.26-4.013-3.717 0-5.602 2.133-7.261 4.013l-.019.019a1.179 1.179 0 0 0 .079 1.659 1.142 1.142 0 0 0 1.631-.09l.019-.019C5.26 5.55 6.583 4.05 9.273 4.05c2.69 0 4.011 1.499 5.546 3.232 1.663 1.88 3.544 4.013 7.26 4.013 3.716 0 5.601-2.133 7.26-4.013 1.535-1.733 2.857-3.232 5.546-3.232 2.69 0 4.012 1.499 5.546 3.232 1.664 1.88 3.545 4.013 7.26 4.013 3.716 0 5.602-2.133 7.261-4.013 1.535-1.733 2.856-3.232 5.546-3.232 2.69 0 4.012 1.499 5.546 3.232 1.664 1.88 3.545 4.013 7.26 4.013 3.716 0 5.602-2.133 7.265-4.013 1.535-1.733 2.857-3.232 5.546-3.232 2.58 0 3.9 1.376 5.361 3.021.037.066.084.132.139.193l.019.018c1.663 1.88 3.544 4.013 7.26 4.013 3.716 0 5.601-2.133 7.26-4.013 1.535-1.733 2.857-3.232 5.546-3.232 2.69 0 4.012 1.499 5.546 3.232 1.664 1.88 3.545 4.013 7.261 4.013 3.715 0 5.601-2.133 7.26-4.013 1.534-1.733 2.861-3.232 5.546-3.232 2.69 0 4.011 1.499 5.546 3.232 1.664 1.88 3.545 4.013 7.26 4.013 3.716 0 5.602-2.133 7.265-4.013 1.535-1.733 2.857-3.232 5.546-3.232 2.69 0 4.012 1.499 5.546 3.232 1.673 1.885 3.554 4.013 7.27 4.013Z"
    fill="currentColor" stroke="currentColor" stroke-width="3" stroke-miterlimit="10" stroke-linejoin="round" />
</svg>